<svg width="32" height="28" viewBox="0 0 32 28" fill="none" xmlns="http://www.w3.org/2000/svg">
<path fill-rule="evenodd" clip-rule="evenodd" d="M32 3.82349C30.8242 4.35894 29.5583 4.72104 28.2303 4.88283C29.5864 4.05076 30.627 2.7314 31.1172 1.15971C29.8475 1.93014 28.4445 2.49063 26.9456 2.7911C25.751 1.48328 24.0437 0.666626 22.1541 0.666626C18.531 0.666626 15.5915 3.68095 15.5915 7.39829C15.5915 7.92604 15.6478 8.43839 15.7605 8.93147C10.3042 8.65026 5.46763 5.97299 2.22762 1.89547C1.66226 2.89318 1.33919 4.05076 1.33919 5.28346C1.33919 7.61787 2.4981 9.67879 4.25991 10.8864C3.18554 10.8537 2.17127 10.5475 1.28473 10.0467V10.1295C1.28473 13.3923 3.54804 16.1138 6.55326 16.7302C6.00293 16.8881 5.42255 16.9671 4.82338 16.9671C4.40077 16.9671 3.98755 16.9266 3.58748 16.8477C4.42331 19.5211 6.84627 21.4684 9.72001 21.5204C7.47361 23.327 4.64119 24.4037 1.56647 24.4037C1.0368 24.4037 0.512766 24.3729 0 24.3113C2.90568 26.2181 6.35792 27.3333 10.0637 27.3333C22.141 27.3333 28.7431 17.0769 28.7431 8.18029C28.7431 7.88752 28.7374 7.59476 28.7262 7.30777C30.009 6.35821 31.1229 5.17367 32 3.82349Z" fill="#00AAEC"/>
</svg>
