<svg width="30" height="30" viewBox="0 0 30 30" fill="none" xmlns="http://www.w3.org/2000/svg">
<path d="M29.996 15.091C29.995 6.81005 23.282 0.0970459 15 0.0970459C6.718 0.0970459 0.0039978 6.81105 0.0039978 15.093C0.0039978 22.548 5.444 28.732 12.57 29.893L12.656 29.905V19.427H8.848V15.091H12.656V11.789C12.637 11.622 12.627 11.428 12.627 11.232C12.627 8.30905 14.997 5.93905 17.92 5.93905C18.061 5.93905 18.201 5.94505 18.34 5.95505L18.322 5.95405C19.521 5.97105 20.681 6.07705 21.813 6.26605L21.679 6.24705V9.93705H19.787C19.701 9.92505 19.602 9.91805 19.502 9.91805C18.305 9.91805 17.334 10.888 17.334 12.086C17.334 12.154 17.337 12.221 17.343 12.288L17.342 12.279V15.091H21.501L20.836 19.427H17.342V29.905C24.555 28.731 29.995 22.546 29.996 15.091Z" fill="#0300FF"/>
</svg>
